<svg xmlns="http://www.w3.org/2000/svg" width="840" height="196" viewBox="0 0 840 196" shape-rendering="crispEdges" role="img" aria-label="AIZEN (BLEACH): &quot;Since when were you under the impression that I wasn't using Kyoka Suigetsu?&quot;">
<title>AIZEN (BLEACH): &quot;Since when were you under the impression that I wasn't using Kyoka Suigetsu?&quot;</title>
<style>
@keyframes blink{50%{opacity:0}}
@keyframes grow{from{transform:scaleX(0)}}
@keyframes bob{50%{transform:translateY(-4px)}}
.blink{animation:blink 1s steps(1) infinite}
.blink-slow{animation:blink 2.4s steps(1) infinite}
.grow{transform-box:fill-box;transform-origin:left;animation:grow 1.2s both}
.bob{animation:bob 1s steps(1) infinite}
@media (prefers-reduced-motion:reduce){*{animation:none!important}}
.type{animation-name:type;animation-fill-mode:both}@keyframes type{from{transform:translateX(0)}}</style>

<defs><clipPath id="ta"><rect x="196" y="56" width="620" height="100"/></clipPath></defs>
<path d="M4 0h832v4h4v188h-4v4h-832v-4h-4v-188h4z" fill="#000000"/><path d="M8 4h824v4h4v180h-4v4h-824v-4h-4v-180h4z" fill="#fff1e8"/><path d="M12 8h816v4h4v172h-4v4h-816v-4h-4v-172h4z" fill="#0b0e1f"/>
<path d="M24 20h148v4h4v148h-4v4h-148v-4h-4v-148h4z" fill="#000000"/><path d="M28 24h140v4h4v140h-4v4h-140v-4h-4v-140h4z" fill="#ffa300"/><path d="M32 28h132v4h4v132h-4v4h-132v-4h-4v-132h4z" fill="#1d2b53"/>
<path d="M130 50h16v8h-16zM122 58h24v8h-24zM114 66h24v8h-24zM106 74h24v8h-24zM98 82h24v8h-24zM90 90h24v8h-24zM82 98h24v8h-24zM74 106h24v8h-24z" fill="#c2c3c7"/><path d="M58 106h8v8h-8zM66 114h24v8h-24zM74 122h16v8h-16zM82 130h8v8h-8z" fill="#ffa300"/><path d="M66 122h8v8h-8zM58 130h16v8h-16zM50 138h16v8h-16z" fill="#fff1e8"/>
<path d="M199 26h9v3h-9zM196 29h3v3h-3zM208 29h3v3h-3zM196 32h3v3h-3zM208 32h3v3h-3zM196 35h15v3h-15zM196 38h3v3h-3zM208 38h3v3h-3zM196 41h3v3h-3zM208 41h3v3h-3zM196 44h3v3h-3zM208 44h3v3h-3zM217 26h9v3h-9zM220 29h3v3h-3zM220 32h3v3h-3zM220 35h3v3h-3zM220 38h3v3h-3zM220 41h3v3h-3zM217 44h9v3h-9zM232 26h15v3h-15zM244 29h3v3h-3zM241 32h3v3h-3zM238 35h3v3h-3zM235 38h3v3h-3zM232 41h3v3h-3zM232 44h15v3h-15zM250 26h15v3h-15zM250 29h3v3h-3zM250 32h3v3h-3zM250 35h12v3h-12zM250 38h3v3h-3zM250 41h3v3h-3zM250 44h15v3h-15zM268 26h3v3h-3zM280 26h3v3h-3zM268 29h3v3h-3zM280 29h3v3h-3zM268 32h6v3h-6zM280 32h3v3h-3zM268 35h3v3h-3zM274 35h3v3h-3zM280 35h3v3h-3zM268 38h3v3h-3zM277 38h6v3h-6zM268 41h3v3h-3zM280 41h3v3h-3zM268 44h3v3h-3zM280 44h3v3h-3z" fill="#ffa300"/>
<path d="M628 30h6v2h-6zM626 32h2v2h-2zM634 32h2v2h-2zM626 34h2v2h-2zM634 34h2v2h-2zM626 36h2v2h-2zM634 36h2v2h-2zM626 38h2v2h-2zM630 38h2v2h-2zM634 38h2v2h-2zM626 40h2v2h-2zM632 40h2v2h-2zM628 42h4v2h-4zM634 42h2v2h-2zM638 30h2v2h-2zM646 30h2v2h-2zM638 32h2v2h-2zM646 32h2v2h-2zM638 34h2v2h-2zM646 34h2v2h-2zM638 36h2v2h-2zM646 36h2v2h-2zM638 38h2v2h-2zM646 38h2v2h-2zM638 40h2v2h-2zM646 40h2v2h-2zM640 42h6v2h-6zM652 30h6v2h-6zM650 32h2v2h-2zM658 32h2v2h-2zM650 34h2v2h-2zM658 34h2v2h-2zM650 36h2v2h-2zM658 36h2v2h-2zM650 38h2v2h-2zM658 38h2v2h-2zM650 40h2v2h-2zM658 40h2v2h-2zM652 42h6v2h-6zM662 30h10v2h-10zM666 32h2v2h-2zM666 34h2v2h-2zM666 36h2v2h-2zM666 38h2v2h-2zM666 40h2v2h-2zM666 42h2v2h-2zM674 30h10v2h-10zM674 32h2v2h-2zM674 34h2v2h-2zM674 36h8v2h-8zM674 38h2v2h-2zM674 40h2v2h-2zM674 42h10v2h-10zM700 30h6v2h-6zM698 32h2v2h-2zM706 32h2v2h-2zM698 34h2v2h-2zM706 34h2v2h-2zM698 36h2v2h-2zM706 36h2v2h-2zM698 38h2v2h-2zM706 38h2v2h-2zM698 40h2v2h-2zM706 40h2v2h-2zM700 42h6v2h-6zM710 30h10v2h-10zM710 32h2v2h-2zM710 34h2v2h-2zM710 36h8v2h-8zM710 38h2v2h-2zM710 40h2v2h-2zM710 42h2v2h-2zM734 30h10v2h-10zM738 32h2v2h-2zM738 34h2v2h-2zM738 36h2v2h-2zM738 38h2v2h-2zM738 40h2v2h-2zM738 42h2v2h-2zM746 30h2v2h-2zM754 30h2v2h-2zM746 32h2v2h-2zM754 32h2v2h-2zM746 34h2v2h-2zM754 34h2v2h-2zM746 36h10v2h-10zM746 38h2v2h-2zM754 38h2v2h-2zM746 40h2v2h-2zM754 40h2v2h-2zM746 42h2v2h-2zM754 42h2v2h-2zM758 30h10v2h-10zM758 32h2v2h-2zM758 34h2v2h-2zM758 36h8v2h-8zM758 38h2v2h-2zM758 40h2v2h-2zM758 42h10v2h-10zM782 30h8v2h-8zM782 32h2v2h-2zM790 32h2v2h-2zM782 34h2v2h-2zM790 34h2v2h-2zM782 36h2v2h-2zM790 36h2v2h-2zM782 38h2v2h-2zM790 38h2v2h-2zM782 40h2v2h-2zM790 40h2v2h-2zM782 42h8v2h-8zM796 30h6v2h-6zM794 32h2v2h-2zM802 32h2v2h-2zM794 34h2v2h-2zM802 34h2v2h-2zM794 36h10v2h-10zM794 38h2v2h-2zM802 38h2v2h-2zM794 40h2v2h-2zM802 40h2v2h-2zM794 42h2v2h-2zM802 42h2v2h-2zM806 30h2v2h-2zM814 30h2v2h-2zM806 32h2v2h-2zM814 32h2v2h-2zM808 34h2v2h-2zM812 34h2v2h-2zM810 36h2v2h-2zM810 38h2v2h-2zM810 40h2v2h-2zM810 42h2v2h-2z" fill="#5f574f"/>
<g clip-path="url(#ta)"><path d="M199 66h3v3h-3zM205 66h3v3h-3zM199 69h3v3h-3zM205 69h3v3h-3zM217 66h12v3h-12zM214 69h3v3h-3zM214 72h3v3h-3zM217 75h9v3h-9zM226 78h3v3h-3zM226 81h3v3h-3zM214 84h12v3h-12zM235 66h9v3h-9zM238 69h3v3h-3zM238 72h3v3h-3zM238 75h3v3h-3zM238 78h3v3h-3zM238 81h3v3h-3zM235 84h9v3h-9zM250 66h3v3h-3zM262 66h3v3h-3zM250 69h3v3h-3zM262 69h3v3h-3zM250 72h6v3h-6zM262 72h3v3h-3zM250 75h3v3h-3zM256 75h3v3h-3zM262 75h3v3h-3zM250 78h3v3h-3zM259 78h6v3h-6zM250 81h3v3h-3zM262 81h3v3h-3zM250 84h3v3h-3zM262 84h3v3h-3zM271 66h9v3h-9zM268 69h3v3h-3zM280 69h3v3h-3zM268 72h3v3h-3zM268 75h3v3h-3zM268 78h3v3h-3zM268 81h3v3h-3zM280 81h3v3h-3zM271 84h9v3h-9zM286 66h15v3h-15zM286 69h3v3h-3zM286 72h3v3h-3zM286 75h12v3h-12zM286 78h3v3h-3zM286 81h3v3h-3zM286 84h15v3h-15zM322 66h3v3h-3zM334 66h3v3h-3zM322 69h3v3h-3zM334 69h3v3h-3zM322 72h3v3h-3zM334 72h3v3h-3zM322 75h3v3h-3zM328 75h3v3h-3zM334 75h3v3h-3zM322 78h3v3h-3zM328 78h3v3h-3zM334 78h3v3h-3zM322 81h3v3h-3zM328 81h3v3h-3zM334 81h3v3h-3zM325 84h3v3h-3zM331 84h3v3h-3zM340 66h3v3h-3zM352 66h3v3h-3zM340 69h3v3h-3zM352 69h3v3h-3zM340 72h3v3h-3zM352 72h3v3h-3zM340 75h15v3h-15zM340 78h3v3h-3zM352 78h3v3h-3zM340 81h3v3h-3zM352 81h3v3h-3zM340 84h3v3h-3zM352 84h3v3h-3zM358 66h15v3h-15zM358 69h3v3h-3zM358 72h3v3h-3zM358 75h12v3h-12zM358 78h3v3h-3zM358 81h3v3h-3zM358 84h15v3h-15zM376 66h3v3h-3zM388 66h3v3h-3zM376 69h3v3h-3zM388 69h3v3h-3zM376 72h6v3h-6zM388 72h3v3h-3zM376 75h3v3h-3zM382 75h3v3h-3zM388 75h3v3h-3zM376 78h3v3h-3zM385 78h6v3h-6zM376 81h3v3h-3zM388 81h3v3h-3zM376 84h3v3h-3zM388 84h3v3h-3zM412 66h3v3h-3zM424 66h3v3h-3zM412 69h3v3h-3zM424 69h3v3h-3zM412 72h3v3h-3zM424 72h3v3h-3zM412 75h3v3h-3zM418 75h3v3h-3zM424 75h3v3h-3zM412 78h3v3h-3zM418 78h3v3h-3zM424 78h3v3h-3zM412 81h3v3h-3zM418 81h3v3h-3zM424 81h3v3h-3zM415 84h3v3h-3zM421 84h3v3h-3zM430 66h15v3h-15zM430 69h3v3h-3zM430 72h3v3h-3zM430 75h12v3h-12zM430 78h3v3h-3zM430 81h3v3h-3zM430 84h15v3h-15zM448 66h12v3h-12zM448 69h3v3h-3zM460 69h3v3h-3zM448 72h3v3h-3zM460 72h3v3h-3zM448 75h12v3h-12zM448 78h3v3h-3zM454 78h3v3h-3zM448 81h3v3h-3zM457 81h3v3h-3zM448 84h3v3h-3zM460 84h3v3h-3zM466 66h15v3h-15zM466 69h3v3h-3zM466 72h3v3h-3zM466 75h12v3h-12zM466 78h3v3h-3zM466 81h3v3h-3zM466 84h15v3h-15zM502 66h3v3h-3zM514 66h3v3h-3zM502 69h3v3h-3zM514 69h3v3h-3zM505 72h3v3h-3zM511 72h3v3h-3zM508 75h3v3h-3zM508 78h3v3h-3zM508 81h3v3h-3zM508 84h3v3h-3zM523 66h9v3h-9zM520 69h3v3h-3zM532 69h3v3h-3zM520 72h3v3h-3zM532 72h3v3h-3zM520 75h3v3h-3zM532 75h3v3h-3zM520 78h3v3h-3zM532 78h3v3h-3zM520 81h3v3h-3zM532 81h3v3h-3zM523 84h9v3h-9zM538 66h3v3h-3zM550 66h3v3h-3zM538 69h3v3h-3zM550 69h3v3h-3zM538 72h3v3h-3zM550 72h3v3h-3zM538 75h3v3h-3zM550 75h3v3h-3zM538 78h3v3h-3zM550 78h3v3h-3zM538 81h3v3h-3zM550 81h3v3h-3zM541 84h9v3h-9zM574 66h3v3h-3zM586 66h3v3h-3zM574 69h3v3h-3zM586 69h3v3h-3zM574 72h3v3h-3zM586 72h3v3h-3zM574 75h3v3h-3zM586 75h3v3h-3zM574 78h3v3h-3zM586 78h3v3h-3zM574 81h3v3h-3zM586 81h3v3h-3zM577 84h9v3h-9zM592 66h3v3h-3zM604 66h3v3h-3zM592 69h3v3h-3zM604 69h3v3h-3zM592 72h6v3h-6zM604 72h3v3h-3zM592 75h3v3h-3zM598 75h3v3h-3zM604 75h3v3h-3zM592 78h3v3h-3zM601 78h6v3h-6zM592 81h3v3h-3zM604 81h3v3h-3zM592 84h3v3h-3zM604 84h3v3h-3zM610 66h12v3h-12zM610 69h3v3h-3zM622 69h3v3h-3zM610 72h3v3h-3zM622 72h3v3h-3zM610 75h3v3h-3zM622 75h3v3h-3zM610 78h3v3h-3zM622 78h3v3h-3zM610 81h3v3h-3zM622 81h3v3h-3zM610 84h12v3h-12zM628 66h15v3h-15zM628 69h3v3h-3zM628 72h3v3h-3zM628 75h12v3h-12zM628 78h3v3h-3zM628 81h3v3h-3zM628 84h15v3h-15zM646 66h12v3h-12zM646 69h3v3h-3zM658 69h3v3h-3zM646 72h3v3h-3zM658 72h3v3h-3zM646 75h12v3h-12zM646 78h3v3h-3zM652 78h3v3h-3zM646 81h3v3h-3zM655 81h3v3h-3zM646 84h3v3h-3zM658 84h3v3h-3zM682 66h15v3h-15zM688 69h3v3h-3zM688 72h3v3h-3zM688 75h3v3h-3zM688 78h3v3h-3zM688 81h3v3h-3zM688 84h3v3h-3zM700 66h3v3h-3zM712 66h3v3h-3zM700 69h3v3h-3zM712 69h3v3h-3zM700 72h3v3h-3zM712 72h3v3h-3zM700 75h15v3h-15zM700 78h3v3h-3zM712 78h3v3h-3zM700 81h3v3h-3zM712 81h3v3h-3zM700 84h3v3h-3zM712 84h3v3h-3zM718 66h15v3h-15zM718 69h3v3h-3zM718 72h3v3h-3zM718 75h12v3h-12zM718 78h3v3h-3zM718 81h3v3h-3zM718 84h15v3h-15z" fill="#fff1e8"/><rect class="type" x="196" y="64" width="540" height="25" fill="#0b0e1f" style="transform:translateX(540px);animation-duration:1.35s;animation-delay:0.40s;animation-timing-function:steps(30)"/><path d="M199 96h9v3h-9zM202 99h3v3h-3zM202 102h3v3h-3zM202 105h3v3h-3zM202 108h3v3h-3zM202 111h3v3h-3zM199 114h9v3h-9zM214 96h3v3h-3zM226 96h3v3h-3zM214 99h6v3h-6zM223 99h6v3h-6zM214 102h3v3h-3zM220 102h3v3h-3zM226 102h3v3h-3zM214 105h3v3h-3zM220 105h3v3h-3zM226 105h3v3h-3zM214 108h3v3h-3zM226 108h3v3h-3zM214 111h3v3h-3zM226 111h3v3h-3zM214 114h3v3h-3zM226 114h3v3h-3zM232 96h12v3h-12zM232 99h3v3h-3zM244 99h3v3h-3zM232 102h3v3h-3zM244 102h3v3h-3zM232 105h12v3h-12zM232 108h3v3h-3zM232 111h3v3h-3zM232 114h3v3h-3zM250 96h12v3h-12zM250 99h3v3h-3zM262 99h3v3h-3zM250 102h3v3h-3zM262 102h3v3h-3zM250 105h12v3h-12zM250 108h3v3h-3zM256 108h3v3h-3zM250 111h3v3h-3zM259 111h3v3h-3zM250 114h3v3h-3zM262 114h3v3h-3zM268 96h15v3h-15zM268 99h3v3h-3zM268 102h3v3h-3zM268 105h12v3h-12zM268 108h3v3h-3zM268 111h3v3h-3zM268 114h15v3h-15zM289 96h12v3h-12zM286 99h3v3h-3zM286 102h3v3h-3zM289 105h9v3h-9zM298 108h3v3h-3zM298 111h3v3h-3zM286 114h12v3h-12zM307 96h12v3h-12zM304 99h3v3h-3zM304 102h3v3h-3zM307 105h9v3h-9zM316 108h3v3h-3zM316 111h3v3h-3zM304 114h12v3h-12zM325 96h9v3h-9zM328 99h3v3h-3zM328 102h3v3h-3zM328 105h3v3h-3zM328 108h3v3h-3zM328 111h3v3h-3zM325 114h9v3h-9zM343 96h9v3h-9zM340 99h3v3h-3zM352 99h3v3h-3zM340 102h3v3h-3zM352 102h3v3h-3zM340 105h3v3h-3zM352 105h3v3h-3zM340 108h3v3h-3zM352 108h3v3h-3zM340 111h3v3h-3zM352 111h3v3h-3zM343 114h9v3h-9zM358 96h3v3h-3zM370 96h3v3h-3zM358 99h3v3h-3zM370 99h3v3h-3zM358 102h6v3h-6zM370 102h3v3h-3zM358 105h3v3h-3zM364 105h3v3h-3zM370 105h3v3h-3zM358 108h3v3h-3zM367 108h6v3h-6zM358 111h3v3h-3zM370 111h3v3h-3zM358 114h3v3h-3zM370 114h3v3h-3zM394 96h15v3h-15zM400 99h3v3h-3zM400 102h3v3h-3zM400 105h3v3h-3zM400 108h3v3h-3zM400 111h3v3h-3zM400 114h3v3h-3zM412 96h3v3h-3zM424 96h3v3h-3zM412 99h3v3h-3zM424 99h3v3h-3zM412 102h3v3h-3zM424 102h3v3h-3zM412 105h15v3h-15zM412 108h3v3h-3zM424 108h3v3h-3zM412 111h3v3h-3zM424 111h3v3h-3zM412 114h3v3h-3zM424 114h3v3h-3zM433 96h9v3h-9zM430 99h3v3h-3zM442 99h3v3h-3zM430 102h3v3h-3zM442 102h3v3h-3zM430 105h15v3h-15zM430 108h3v3h-3zM442 108h3v3h-3zM430 111h3v3h-3zM442 111h3v3h-3zM430 114h3v3h-3zM442 114h3v3h-3zM448 96h15v3h-15zM454 99h3v3h-3zM454 102h3v3h-3zM454 105h3v3h-3zM454 108h3v3h-3zM454 111h3v3h-3zM454 114h3v3h-3zM487 96h9v3h-9zM490 99h3v3h-3zM490 102h3v3h-3zM490 105h3v3h-3zM490 108h3v3h-3zM490 111h3v3h-3zM487 114h9v3h-9zM520 96h3v3h-3zM532 96h3v3h-3zM520 99h3v3h-3zM532 99h3v3h-3zM520 102h3v3h-3zM532 102h3v3h-3zM520 105h3v3h-3zM526 105h3v3h-3zM532 105h3v3h-3zM520 108h3v3h-3zM526 108h3v3h-3zM532 108h3v3h-3zM520 111h3v3h-3zM526 111h3v3h-3zM532 111h3v3h-3zM523 114h3v3h-3zM529 114h3v3h-3zM541 96h9v3h-9zM538 99h3v3h-3zM550 99h3v3h-3zM538 102h3v3h-3zM550 102h3v3h-3zM538 105h15v3h-15zM538 108h3v3h-3zM550 108h3v3h-3zM538 111h3v3h-3zM550 111h3v3h-3zM538 114h3v3h-3zM550 114h3v3h-3zM559 96h12v3h-12zM556 99h3v3h-3zM556 102h3v3h-3zM559 105h9v3h-9zM568 108h3v3h-3zM568 111h3v3h-3zM556 114h12v3h-12zM574 96h3v3h-3zM586 96h3v3h-3zM574 99h3v3h-3zM586 99h3v3h-3zM574 102h6v3h-6zM586 102h3v3h-3zM574 105h3v3h-3zM580 105h3v3h-3zM586 105h3v3h-3zM574 108h3v3h-3zM583 108h6v3h-6zM574 111h3v3h-3zM586 111h3v3h-3zM574 114h3v3h-3zM586 114h3v3h-3zM598 96h3v3h-3zM598 99h3v3h-3zM595 102h3v3h-3zM610 96h15v3h-15zM616 99h3v3h-3zM616 102h3v3h-3zM616 105h3v3h-3zM616 108h3v3h-3zM616 111h3v3h-3zM616 114h3v3h-3zM646 96h3v3h-3zM658 96h3v3h-3zM646 99h3v3h-3zM658 99h3v3h-3zM646 102h3v3h-3zM658 102h3v3h-3zM646 105h3v3h-3zM658 105h3v3h-3zM646 108h3v3h-3zM658 108h3v3h-3zM646 111h3v3h-3zM658 111h3v3h-3zM649 114h9v3h-9zM667 96h12v3h-12zM664 99h3v3h-3zM664 102h3v3h-3zM667 105h9v3h-9zM676 108h3v3h-3zM676 111h3v3h-3zM664 114h12v3h-12zM685 96h9v3h-9zM688 99h3v3h-3zM688 102h3v3h-3zM688 105h3v3h-3zM688 108h3v3h-3zM688 111h3v3h-3zM685 114h9v3h-9zM700 96h3v3h-3zM712 96h3v3h-3zM700 99h3v3h-3zM712 99h3v3h-3zM700 102h6v3h-6zM712 102h3v3h-3zM700 105h3v3h-3zM706 105h3v3h-3zM712 105h3v3h-3zM700 108h3v3h-3zM709 108h6v3h-6zM700 111h3v3h-3zM712 111h3v3h-3zM700 114h3v3h-3zM712 114h3v3h-3zM721 96h9v3h-9zM718 99h3v3h-3zM730 99h3v3h-3zM718 102h3v3h-3zM718 105h3v3h-3zM724 105h9v3h-9zM718 108h3v3h-3zM730 108h3v3h-3zM718 111h3v3h-3zM730 111h3v3h-3zM721 114h12v3h-12z" fill="#fff1e8"/><rect class="type" x="196" y="94" width="540" height="25" fill="#0b0e1f" style="transform:translateX(540px);animation-duration:1.35s;animation-delay:1.90s;animation-timing-function:steps(30)"/><path d="M196 126h3v3h-3zM208 126h3v3h-3zM196 129h3v3h-3zM205 129h3v3h-3zM196 132h3v3h-3zM202 132h3v3h-3zM196 135h6v3h-6zM196 138h3v3h-3zM202 138h3v3h-3zM196 141h3v3h-3zM205 141h3v3h-3zM196 144h3v3h-3zM208 144h3v3h-3zM214 126h3v3h-3zM226 126h3v3h-3zM214 129h3v3h-3zM226 129h3v3h-3zM217 132h3v3h-3zM223 132h3v3h-3zM220 135h3v3h-3zM220 138h3v3h-3zM220 141h3v3h-3zM220 144h3v3h-3zM235 126h9v3h-9zM232 129h3v3h-3zM244 129h3v3h-3zM232 132h3v3h-3zM244 132h3v3h-3zM232 135h3v3h-3zM244 135h3v3h-3zM232 138h3v3h-3zM244 138h3v3h-3zM232 141h3v3h-3zM244 141h3v3h-3zM235 144h9v3h-9zM250 126h3v3h-3zM262 126h3v3h-3zM250 129h3v3h-3zM259 129h3v3h-3zM250 132h3v3h-3zM256 132h3v3h-3zM250 135h6v3h-6zM250 138h3v3h-3zM256 138h3v3h-3zM250 141h3v3h-3zM259 141h3v3h-3zM250 144h3v3h-3zM262 144h3v3h-3zM271 126h9v3h-9zM268 129h3v3h-3zM280 129h3v3h-3zM268 132h3v3h-3zM280 132h3v3h-3zM268 135h15v3h-15zM268 138h3v3h-3zM280 138h3v3h-3zM268 141h3v3h-3zM280 141h3v3h-3zM268 144h3v3h-3zM280 144h3v3h-3zM307 126h12v3h-12zM304 129h3v3h-3zM304 132h3v3h-3zM307 135h9v3h-9zM316 138h3v3h-3zM316 141h3v3h-3zM304 144h12v3h-12zM322 126h3v3h-3zM334 126h3v3h-3zM322 129h3v3h-3zM334 129h3v3h-3zM322 132h3v3h-3zM334 132h3v3h-3zM322 135h3v3h-3zM334 135h3v3h-3zM322 138h3v3h-3zM334 138h3v3h-3zM322 141h3v3h-3zM334 141h3v3h-3zM325 144h9v3h-9zM343 126h9v3h-9zM346 129h3v3h-3zM346 132h3v3h-3zM346 135h3v3h-3zM346 138h3v3h-3zM346 141h3v3h-3zM343 144h9v3h-9zM361 126h9v3h-9zM358 129h3v3h-3zM370 129h3v3h-3zM358 132h3v3h-3zM358 135h3v3h-3zM364 135h9v3h-9zM358 138h3v3h-3zM370 138h3v3h-3zM358 141h3v3h-3zM370 141h3v3h-3zM361 144h12v3h-12zM376 126h15v3h-15zM376 129h3v3h-3zM376 132h3v3h-3zM376 135h12v3h-12zM376 138h3v3h-3zM376 141h3v3h-3zM376 144h15v3h-15zM394 126h15v3h-15zM400 129h3v3h-3zM400 132h3v3h-3zM400 135h3v3h-3zM400 138h3v3h-3zM400 141h3v3h-3zM400 144h3v3h-3zM415 126h12v3h-12zM412 129h3v3h-3zM412 132h3v3h-3zM415 135h9v3h-9zM424 138h3v3h-3zM424 141h3v3h-3zM412 144h12v3h-12zM430 126h3v3h-3zM442 126h3v3h-3zM430 129h3v3h-3zM442 129h3v3h-3zM430 132h3v3h-3zM442 132h3v3h-3zM430 135h3v3h-3zM442 135h3v3h-3zM430 138h3v3h-3zM442 138h3v3h-3zM430 141h3v3h-3zM442 141h3v3h-3zM433 144h9v3h-9zM451 126h9v3h-9zM448 129h3v3h-3zM460 129h3v3h-3zM460 132h3v3h-3zM457 135h3v3h-3zM454 138h3v3h-3zM454 144h3v3h-3zM469 126h3v3h-3zM475 126h3v3h-3zM469 129h3v3h-3zM475 129h3v3h-3z" fill="#fff1e8"/><rect class="type" x="196" y="124" width="288" height="25" fill="#0b0e1f" style="transform:translateX(288px);animation-duration:0.72s;animation-delay:3.40s;animation-timing-function:steps(16)"/></g>
<path d="M198 168h6v2h-6zM220 162h8v2h-8zM220 164h2v2h-2zM228 164h2v2h-2zM220 166h2v2h-2zM228 166h2v2h-2zM220 168h8v2h-8zM220 170h2v2h-2zM228 170h2v2h-2zM220 172h2v2h-2zM228 172h2v2h-2zM220 174h8v2h-8zM232 162h2v2h-2zM232 164h2v2h-2zM232 166h2v2h-2zM232 168h2v2h-2zM232 170h2v2h-2zM232 172h2v2h-2zM232 174h10v2h-10zM244 162h10v2h-10zM244 164h2v2h-2zM244 166h2v2h-2zM244 168h8v2h-8zM244 170h2v2h-2zM244 172h2v2h-2zM244 174h10v2h-10zM258 162h6v2h-6zM256 164h2v2h-2zM264 164h2v2h-2zM256 166h2v2h-2zM264 166h2v2h-2zM256 168h10v2h-10zM256 170h2v2h-2zM264 170h2v2h-2zM256 172h2v2h-2zM264 172h2v2h-2zM256 174h2v2h-2zM264 174h2v2h-2zM270 162h6v2h-6zM268 164h2v2h-2zM276 164h2v2h-2zM268 166h2v2h-2zM268 168h2v2h-2zM268 170h2v2h-2zM268 172h2v2h-2zM276 172h2v2h-2zM270 174h6v2h-6zM280 162h2v2h-2zM288 162h2v2h-2zM280 164h2v2h-2zM288 164h2v2h-2zM280 166h2v2h-2zM288 166h2v2h-2zM280 168h10v2h-10zM280 170h2v2h-2zM288 170h2v2h-2zM280 172h2v2h-2zM288 172h2v2h-2zM280 174h2v2h-2zM288 174h2v2h-2z" fill="#83769c"/>
<path class="blink" d="M804 166h10v2h-10zM806 168h6v2h-6zM808 170h2v2h-2z" fill="#fff1e8"/>
</svg>
