<svg xmlns="http://www.w3.org/2000/svg" width="412" height="184" viewBox="0 0 412 184" shape-rendering="crispEdges" role="img" aria-label="C_self: Self-taught C: 11 chapters, problem sets, logic drills and DS lab work.">
<title>C_self: Self-taught C: 11 chapters, problem sets, logic drills and DS lab work.</title>
<style>
@keyframes blink{50%{opacity:0}}
@keyframes grow{from{transform:scaleX(0)}}
@keyframes bob{50%{transform:translateY(-4px)}}
.blink{animation:blink 1s steps(1) infinite}
.blink-slow{animation:blink 2.4s steps(1) infinite}
.grow{transform-box:fill-box;transform-origin:left;animation:grow 1.2s both}
.bob{animation:bob 1s steps(1) infinite}
@media (prefers-reduced-motion:reduce){*{animation:none!important}}
</style>

<path d="M4 0h404v4h4v176h-4v4h-404v-4h-4v-176h4z" fill="#000000"/><path d="M8 4h396v4h4v168h-4v4h-396v-4h-4v-168h4z" fill="#fff1e8"/><path d="M12 8h388v4h4v160h-4v4h-388v-4h-4v-160h4z" fill="#1d2b53"/>
<path d="M20 20h2v2h-2zM28 20h2v2h-2zM20 22h2v2h-2zM28 22h2v2h-2zM20 24h2v2h-2zM28 24h2v2h-2zM20 26h2v2h-2zM24 26h2v2h-2zM28 26h2v2h-2zM20 28h2v2h-2zM24 28h2v2h-2zM28 28h2v2h-2zM20 30h2v2h-2zM24 30h2v2h-2zM28 30h2v2h-2zM22 32h2v2h-2zM26 32h2v2h-2zM34 20h6v2h-6zM32 22h2v2h-2zM40 22h2v2h-2zM32 24h2v2h-2zM40 24h2v2h-2zM32 26h2v2h-2zM40 26h2v2h-2zM32 28h2v2h-2zM40 28h2v2h-2zM32 30h2v2h-2zM40 30h2v2h-2zM34 32h6v2h-6zM44 20h8v2h-8zM44 22h2v2h-2zM52 22h2v2h-2zM44 24h2v2h-2zM52 24h2v2h-2zM44 26h8v2h-8zM44 28h2v2h-2zM48 28h2v2h-2zM44 30h2v2h-2zM50 30h2v2h-2zM44 32h2v2h-2zM52 32h2v2h-2zM56 20h2v2h-2zM56 22h2v2h-2zM56 24h2v2h-2zM56 26h2v2h-2zM56 28h2v2h-2zM56 30h2v2h-2zM56 32h10v2h-10zM68 20h8v2h-8zM68 22h2v2h-2zM76 22h2v2h-2zM68 24h2v2h-2zM76 24h2v2h-2zM68 26h2v2h-2zM76 26h2v2h-2zM68 28h2v2h-2zM76 28h2v2h-2zM68 30h2v2h-2zM76 30h2v2h-2zM68 32h8v2h-8zM96 20h2v2h-2zM94 22h4v2h-4zM96 24h2v2h-2zM96 26h2v2h-2zM96 28h2v2h-2zM96 30h2v2h-2zM94 32h6v2h-6zM106 26h6v2h-6zM120 20h2v2h-2zM118 22h4v2h-4zM120 24h2v2h-2zM120 26h2v2h-2zM120 28h2v2h-2zM120 30h2v2h-2zM118 32h6v2h-6z" fill="#ffec27"/>
<path d="M290 20h2v2h-2zM290 22h2v2h-2zM286 24h10v2h-10zM288 26h6v2h-6zM288 28h2v2h-2zM292 28h2v2h-2zM286 30h2v2h-2zM294 30h2v2h-2zM312 20h6v2h-6zM310 22h2v2h-2zM318 22h2v2h-2zM310 24h2v2h-2zM310 26h2v2h-2zM310 28h2v2h-2zM310 30h2v2h-2zM318 30h2v2h-2zM312 32h6v2h-6zM322 20h2v2h-2zM322 22h2v2h-2zM322 24h2v2h-2zM322 26h2v2h-2zM322 28h2v2h-2zM322 30h2v2h-2zM322 32h10v2h-10zM334 20h10v2h-10zM334 22h2v2h-2zM334 24h2v2h-2zM334 26h8v2h-8zM334 28h2v2h-2zM334 30h2v2h-2zM334 32h10v2h-10zM348 20h6v2h-6zM346 22h2v2h-2zM354 22h2v2h-2zM346 24h2v2h-2zM354 24h2v2h-2zM346 26h10v2h-10zM346 28h2v2h-2zM354 28h2v2h-2zM346 30h2v2h-2zM354 30h2v2h-2zM346 32h2v2h-2zM354 32h2v2h-2zM358 20h8v2h-8zM358 22h2v2h-2zM366 22h2v2h-2zM358 24h2v2h-2zM366 24h2v2h-2zM358 26h8v2h-8zM358 28h2v2h-2zM362 28h2v2h-2zM358 30h2v2h-2zM364 30h2v2h-2zM358 32h2v2h-2zM366 32h2v2h-2zM370 20h10v2h-10zM370 22h2v2h-2zM370 24h2v2h-2zM370 26h8v2h-8zM370 28h2v2h-2zM370 30h2v2h-2zM370 32h10v2h-10zM382 20h8v2h-8zM382 22h2v2h-2zM390 22h2v2h-2zM382 24h2v2h-2zM390 24h2v2h-2zM382 26h2v2h-2zM390 26h2v2h-2zM382 28h2v2h-2zM390 28h2v2h-2zM382 30h2v2h-2zM390 30h2v2h-2zM382 32h8v2h-8z" fill="#00e436"/>
<path d="M23 46h9v3h-9zM20 49h3v3h-3zM32 49h3v3h-3zM20 52h3v3h-3zM20 55h3v3h-3zM20 58h3v3h-3zM20 61h3v3h-3zM32 61h3v3h-3zM23 64h9v3h-9zM38 64h15v3h-15zM59 46h12v3h-12zM56 49h3v3h-3zM56 52h3v3h-3zM59 55h9v3h-9zM68 58h3v3h-3zM68 61h3v3h-3zM56 64h12v3h-12zM74 46h15v3h-15zM74 49h3v3h-3zM74 52h3v3h-3zM74 55h12v3h-12zM74 58h3v3h-3zM74 61h3v3h-3zM74 64h15v3h-15zM92 46h3v3h-3zM92 49h3v3h-3zM92 52h3v3h-3zM92 55h3v3h-3zM92 58h3v3h-3zM92 61h3v3h-3zM92 64h15v3h-15zM110 46h15v3h-15zM110 49h3v3h-3zM110 52h3v3h-3zM110 55h12v3h-12zM110 58h3v3h-3zM110 61h3v3h-3zM110 64h3v3h-3z" fill="#fff1e8"/>
<path d="M20 76h4v2h-4zM28 76h4v2h-4zM36 76h4v2h-4zM44 76h4v2h-4zM52 76h4v2h-4zM60 76h4v2h-4zM68 76h4v2h-4zM76 76h4v2h-4zM84 76h4v2h-4zM92 76h4v2h-4zM100 76h4v2h-4zM108 76h4v2h-4zM116 76h4v2h-4zM124 76h4v2h-4zM132 76h4v2h-4zM140 76h4v2h-4zM148 76h4v2h-4zM156 76h4v2h-4zM164 76h4v2h-4zM172 76h4v2h-4zM180 76h4v2h-4zM188 76h4v2h-4zM196 76h4v2h-4zM204 76h4v2h-4zM212 76h4v2h-4zM220 76h4v2h-4zM228 76h4v2h-4zM236 76h4v2h-4zM244 76h4v2h-4zM252 76h4v2h-4zM260 76h4v2h-4zM268 76h4v2h-4zM276 76h4v2h-4zM284 76h4v2h-4zM292 76h4v2h-4zM300 76h4v2h-4zM308 76h4v2h-4zM316 76h4v2h-4zM324 76h4v2h-4zM332 76h4v2h-4zM340 76h4v2h-4zM348 76h4v2h-4zM356 76h4v2h-4zM364 76h4v2h-4zM372 76h4v2h-4zM380 76h4v2h-4zM388 76h4v2h-4z" fill="#5f574f"/>
<path d="M22 88h8v2h-8zM20 90h2v2h-2zM20 92h2v2h-2zM22 94h6v2h-6zM28 96h2v2h-2zM28 98h2v2h-2zM20 100h8v2h-8zM32 88h10v2h-10zM32 90h2v2h-2zM32 92h2v2h-2zM32 94h8v2h-8zM32 96h2v2h-2zM32 98h2v2h-2zM32 100h10v2h-10zM44 88h2v2h-2zM44 90h2v2h-2zM44 92h2v2h-2zM44 94h2v2h-2zM44 96h2v2h-2zM44 98h2v2h-2zM44 100h10v2h-10zM56 88h10v2h-10zM56 90h2v2h-2zM56 92h2v2h-2zM56 94h8v2h-8zM56 96h2v2h-2zM56 98h2v2h-2zM56 100h2v2h-2zM70 94h6v2h-6zM80 88h10v2h-10zM84 90h2v2h-2zM84 92h2v2h-2zM84 94h2v2h-2zM84 96h2v2h-2zM84 98h2v2h-2zM84 100h2v2h-2zM94 88h6v2h-6zM92 90h2v2h-2zM100 90h2v2h-2zM92 92h2v2h-2zM100 92h2v2h-2zM92 94h10v2h-10zM92 96h2v2h-2zM100 96h2v2h-2zM92 98h2v2h-2zM100 98h2v2h-2zM92 100h2v2h-2zM100 100h2v2h-2zM104 88h2v2h-2zM112 88h2v2h-2zM104 90h2v2h-2zM112 90h2v2h-2zM104 92h2v2h-2zM112 92h2v2h-2zM104 94h2v2h-2zM112 94h2v2h-2zM104 96h2v2h-2zM112 96h2v2h-2zM104 98h2v2h-2zM112 98h2v2h-2zM106 100h6v2h-6zM118 88h6v2h-6zM116 90h2v2h-2zM124 90h2v2h-2zM116 92h2v2h-2zM116 94h2v2h-2zM120 94h6v2h-6zM116 96h2v2h-2zM124 96h2v2h-2zM116 98h2v2h-2zM124 98h2v2h-2zM118 100h8v2h-8zM128 88h2v2h-2zM136 88h2v2h-2zM128 90h2v2h-2zM136 90h2v2h-2zM128 92h2v2h-2zM136 92h2v2h-2zM128 94h10v2h-10zM128 96h2v2h-2zM136 96h2v2h-2zM128 98h2v2h-2zM136 98h2v2h-2zM128 100h2v2h-2zM136 100h2v2h-2zM140 88h10v2h-10zM144 90h2v2h-2zM144 92h2v2h-2zM144 94h2v2h-2zM144 96h2v2h-2zM144 98h2v2h-2zM144 100h2v2h-2zM166 88h6v2h-6zM164 90h2v2h-2zM172 90h2v2h-2zM164 92h2v2h-2zM164 94h2v2h-2zM164 96h2v2h-2zM164 98h2v2h-2zM172 98h2v2h-2zM166 100h6v2h-6zM178 90h4v2h-4zM178 92h4v2h-4zM178 96h4v2h-4zM178 98h4v2h-4zM204 88h2v2h-2zM202 90h4v2h-4zM204 92h2v2h-2zM204 94h2v2h-2zM204 96h2v2h-2zM204 98h2v2h-2zM202 100h6v2h-6zM216 88h2v2h-2zM214 90h4v2h-4zM216 92h2v2h-2zM216 94h2v2h-2zM216 96h2v2h-2zM216 98h2v2h-2zM214 100h6v2h-6zM238 88h6v2h-6zM236 90h2v2h-2zM244 90h2v2h-2zM236 92h2v2h-2zM236 94h2v2h-2zM236 96h2v2h-2zM236 98h2v2h-2zM244 98h2v2h-2zM238 100h6v2h-6zM248 88h2v2h-2zM256 88h2v2h-2zM248 90h2v2h-2zM256 90h2v2h-2zM248 92h2v2h-2zM256 92h2v2h-2zM248 94h10v2h-10zM248 96h2v2h-2zM256 96h2v2h-2zM248 98h2v2h-2zM256 98h2v2h-2zM248 100h2v2h-2zM256 100h2v2h-2zM262 88h6v2h-6zM260 90h2v2h-2zM268 90h2v2h-2zM260 92h2v2h-2zM268 92h2v2h-2zM260 94h10v2h-10zM260 96h2v2h-2zM268 96h2v2h-2zM260 98h2v2h-2zM268 98h2v2h-2zM260 100h2v2h-2zM268 100h2v2h-2zM272 88h8v2h-8zM272 90h2v2h-2zM280 90h2v2h-2zM272 92h2v2h-2zM280 92h2v2h-2zM272 94h8v2h-8zM272 96h2v2h-2zM272 98h2v2h-2zM272 100h2v2h-2zM284 88h10v2h-10zM288 90h2v2h-2zM288 92h2v2h-2zM288 94h2v2h-2zM288 96h2v2h-2zM288 98h2v2h-2zM288 100h2v2h-2zM296 88h10v2h-10zM296 90h2v2h-2zM296 92h2v2h-2zM296 94h8v2h-8zM296 96h2v2h-2zM296 98h2v2h-2zM296 100h10v2h-10zM308 88h8v2h-8zM308 90h2v2h-2zM316 90h2v2h-2zM308 92h2v2h-2zM316 92h2v2h-2zM308 94h8v2h-8zM308 96h2v2h-2zM312 96h2v2h-2zM308 98h2v2h-2zM314 98h2v2h-2zM308 100h2v2h-2zM316 100h2v2h-2zM322 88h8v2h-8zM320 90h2v2h-2zM320 92h2v2h-2zM322 94h6v2h-6zM328 96h2v2h-2zM328 98h2v2h-2zM320 100h8v2h-8zM334 96h4v2h-4zM336 98h2v2h-2zM334 100h2v2h-2z" fill="#c2c3c7"/><path d="M20 108h8v2h-8zM20 110h2v2h-2zM28 110h2v2h-2zM20 112h2v2h-2zM28 112h2v2h-2zM20 114h8v2h-8zM20 116h2v2h-2zM20 118h2v2h-2zM20 120h2v2h-2zM32 108h8v2h-8zM32 110h2v2h-2zM40 110h2v2h-2zM32 112h2v2h-2zM40 112h2v2h-2zM32 114h8v2h-8zM32 116h2v2h-2zM36 116h2v2h-2zM32 118h2v2h-2zM38 118h2v2h-2zM32 120h2v2h-2zM40 120h2v2h-2zM46 108h6v2h-6zM44 110h2v2h-2zM52 110h2v2h-2zM44 112h2v2h-2zM52 112h2v2h-2zM44 114h2v2h-2zM52 114h2v2h-2zM44 116h2v2h-2zM52 116h2v2h-2zM44 118h2v2h-2zM52 118h2v2h-2zM46 120h6v2h-6zM56 108h8v2h-8zM56 110h2v2h-2zM64 110h2v2h-2zM56 112h2v2h-2zM64 112h2v2h-2zM56 114h8v2h-8zM56 116h2v2h-2zM64 116h2v2h-2zM56 118h2v2h-2zM64 118h2v2h-2zM56 120h8v2h-8zM68 108h2v2h-2zM68 110h2v2h-2zM68 112h2v2h-2zM68 114h2v2h-2zM68 116h2v2h-2zM68 118h2v2h-2zM68 120h10v2h-10zM80 108h10v2h-10zM80 110h2v2h-2zM80 112h2v2h-2zM80 114h8v2h-8zM80 116h2v2h-2zM80 118h2v2h-2zM80 120h10v2h-10zM92 108h2v2h-2zM100 108h2v2h-2zM92 110h4v2h-4zM98 110h4v2h-4zM92 112h2v2h-2zM96 112h2v2h-2zM100 112h2v2h-2zM92 114h2v2h-2zM96 114h2v2h-2zM100 114h2v2h-2zM92 116h2v2h-2zM100 116h2v2h-2zM92 118h2v2h-2zM100 118h2v2h-2zM92 120h2v2h-2zM100 120h2v2h-2zM118 108h8v2h-8zM116 110h2v2h-2zM116 112h2v2h-2zM118 114h6v2h-6zM124 116h2v2h-2zM124 118h2v2h-2zM116 120h8v2h-8zM128 108h10v2h-10zM128 110h2v2h-2zM128 112h2v2h-2zM128 114h8v2h-8zM128 116h2v2h-2zM128 118h2v2h-2zM128 120h10v2h-10zM140 108h10v2h-10zM144 110h2v2h-2zM144 112h2v2h-2zM144 114h2v2h-2zM144 116h2v2h-2zM144 118h2v2h-2zM144 120h2v2h-2zM154 108h8v2h-8zM152 110h2v2h-2zM152 112h2v2h-2zM154 114h6v2h-6zM160 116h2v2h-2zM160 118h2v2h-2zM152 120h8v2h-8zM166 116h4v2h-4zM168 118h2v2h-2zM166 120h2v2h-2zM188 108h2v2h-2zM188 110h2v2h-2zM188 112h2v2h-2zM188 114h2v2h-2zM188 116h2v2h-2zM188 118h2v2h-2zM188 120h10v2h-10zM202 108h6v2h-6zM200 110h2v2h-2zM208 110h2v2h-2zM200 112h2v2h-2zM208 112h2v2h-2zM200 114h2v2h-2zM208 114h2v2h-2zM200 116h2v2h-2zM208 116h2v2h-2zM200 118h2v2h-2zM208 118h2v2h-2zM202 120h6v2h-6zM214 108h6v2h-6zM212 110h2v2h-2zM220 110h2v2h-2zM212 112h2v2h-2zM212 114h2v2h-2zM216 114h6v2h-6zM212 116h2v2h-2zM220 116h2v2h-2zM212 118h2v2h-2zM220 118h2v2h-2zM214 120h8v2h-8zM226 108h6v2h-6zM228 110h2v2h-2zM228 112h2v2h-2zM228 114h2v2h-2zM228 116h2v2h-2zM228 118h2v2h-2zM226 120h6v2h-6zM238 108h6v2h-6zM236 110h2v2h-2zM244 110h2v2h-2zM236 112h2v2h-2zM236 114h2v2h-2zM236 116h2v2h-2zM236 118h2v2h-2zM244 118h2v2h-2zM238 120h6v2h-6zM260 108h8v2h-8zM260 110h2v2h-2zM268 110h2v2h-2zM260 112h2v2h-2zM268 112h2v2h-2zM260 114h2v2h-2zM268 114h2v2h-2zM260 116h2v2h-2zM268 116h2v2h-2zM260 118h2v2h-2zM268 118h2v2h-2zM260 120h8v2h-8zM272 108h8v2h-8zM272 110h2v2h-2zM280 110h2v2h-2zM272 112h2v2h-2zM280 112h2v2h-2zM272 114h8v2h-8zM272 116h2v2h-2zM276 116h2v2h-2zM272 118h2v2h-2zM278 118h2v2h-2zM272 120h2v2h-2zM280 120h2v2h-2zM286 108h6v2h-6zM288 110h2v2h-2zM288 112h2v2h-2zM288 114h2v2h-2zM288 116h2v2h-2zM288 118h2v2h-2zM286 120h6v2h-6zM296 108h2v2h-2zM296 110h2v2h-2zM296 112h2v2h-2zM296 114h2v2h-2zM296 116h2v2h-2zM296 118h2v2h-2zM296 120h10v2h-10zM308 108h2v2h-2zM308 110h2v2h-2zM308 112h2v2h-2zM308 114h2v2h-2zM308 116h2v2h-2zM308 118h2v2h-2zM308 120h10v2h-10zM322 108h8v2h-8zM320 110h2v2h-2zM320 112h2v2h-2zM322 114h6v2h-6zM328 116h2v2h-2zM328 118h2v2h-2zM320 120h8v2h-8zM346 108h6v2h-6zM344 110h2v2h-2zM352 110h2v2h-2zM344 112h2v2h-2zM352 112h2v2h-2zM344 114h10v2h-10zM344 116h2v2h-2zM352 116h2v2h-2zM344 118h2v2h-2zM352 118h2v2h-2zM344 120h2v2h-2zM352 120h2v2h-2zM356 108h2v2h-2zM364 108h2v2h-2zM356 110h2v2h-2zM364 110h2v2h-2zM356 112h4v2h-4zM364 112h2v2h-2zM356 114h2v2h-2zM360 114h2v2h-2zM364 114h2v2h-2zM356 116h2v2h-2zM362 116h4v2h-4zM356 118h2v2h-2zM364 118h2v2h-2zM356 120h2v2h-2zM364 120h2v2h-2zM368 108h8v2h-8zM368 110h2v2h-2zM376 110h2v2h-2zM368 112h2v2h-2zM376 112h2v2h-2zM368 114h2v2h-2zM376 114h2v2h-2zM368 116h2v2h-2zM376 116h2v2h-2zM368 118h2v2h-2zM376 118h2v2h-2zM368 120h8v2h-8z" fill="#c2c3c7"/><path d="M20 128h8v2h-8zM20 130h2v2h-2zM28 130h2v2h-2zM20 132h2v2h-2zM28 132h2v2h-2zM20 134h2v2h-2zM28 134h2v2h-2zM20 136h2v2h-2zM28 136h2v2h-2zM20 138h2v2h-2zM28 138h2v2h-2zM20 140h8v2h-8zM34 128h8v2h-8zM32 130h2v2h-2zM32 132h2v2h-2zM34 134h6v2h-6zM40 136h2v2h-2zM40 138h2v2h-2zM32 140h8v2h-8zM56 128h2v2h-2zM56 130h2v2h-2zM56 132h2v2h-2zM56 134h2v2h-2zM56 136h2v2h-2zM56 138h2v2h-2zM56 140h10v2h-10zM70 128h6v2h-6zM68 130h2v2h-2zM76 130h2v2h-2zM68 132h2v2h-2zM76 132h2v2h-2zM68 134h10v2h-10zM68 136h2v2h-2zM76 136h2v2h-2zM68 138h2v2h-2zM76 138h2v2h-2zM68 140h2v2h-2zM76 140h2v2h-2zM80 128h8v2h-8zM80 130h2v2h-2zM88 130h2v2h-2zM80 132h2v2h-2zM88 132h2v2h-2zM80 134h8v2h-8zM80 136h2v2h-2zM88 136h2v2h-2zM80 138h2v2h-2zM88 138h2v2h-2zM80 140h8v2h-8zM104 128h2v2h-2zM112 128h2v2h-2zM104 130h2v2h-2zM112 130h2v2h-2zM104 132h2v2h-2zM112 132h2v2h-2zM104 134h2v2h-2zM108 134h2v2h-2zM112 134h2v2h-2zM104 136h2v2h-2zM108 136h2v2h-2zM112 136h2v2h-2zM104 138h2v2h-2zM108 138h2v2h-2zM112 138h2v2h-2zM106 140h2v2h-2zM110 140h2v2h-2zM118 128h6v2h-6zM116 130h2v2h-2zM124 130h2v2h-2zM116 132h2v2h-2zM124 132h2v2h-2zM116 134h2v2h-2zM124 134h2v2h-2zM116 136h2v2h-2zM124 136h2v2h-2zM116 138h2v2h-2zM124 138h2v2h-2zM118 140h6v2h-6zM128 128h8v2h-8zM128 130h2v2h-2zM136 130h2v2h-2zM128 132h2v2h-2zM136 132h2v2h-2zM128 134h8v2h-8zM128 136h2v2h-2zM132 136h2v2h-2zM128 138h2v2h-2zM134 138h2v2h-2zM128 140h2v2h-2zM136 140h2v2h-2zM140 128h2v2h-2zM148 128h2v2h-2zM140 130h2v2h-2zM146 130h2v2h-2zM140 132h2v2h-2zM144 132h2v2h-2zM140 134h4v2h-4zM140 136h2v2h-2zM144 136h2v2h-2zM140 138h2v2h-2zM146 138h2v2h-2zM140 140h2v2h-2zM148 140h2v2h-2zM154 138h4v2h-4zM154 140h4v2h-4z" fill="#c2c3c7"/>
<rect x="20" y="152" width="12" height="12" fill="#c2c3c7"/>
<path d="M42 151h6v2h-6zM40 153h2v2h-2zM48 153h2v2h-2zM40 155h2v2h-2zM40 157h2v2h-2zM40 159h2v2h-2zM40 161h2v2h-2zM48 161h2v2h-2zM42 163h6v2h-6z" fill="#fff1e8"/>
<path d="M154 151h2v2h-2zM154 153h2v2h-2zM150 155h10v2h-10zM152 157h6v2h-6zM152 159h2v2h-2zM156 159h2v2h-2zM150 161h2v2h-2zM158 161h2v2h-2zM176 151h6v2h-6zM174 153h2v2h-2zM182 153h2v2h-2zM174 155h2v2h-2zM180 155h4v2h-4zM174 157h2v2h-2zM178 157h2v2h-2zM182 157h2v2h-2zM174 159h4v2h-4zM182 159h2v2h-2zM174 161h2v2h-2zM182 161h2v2h-2zM176 163h6v2h-6z" fill="#ffec27"/>
<path class="blink" d="M310 151h2v2h-2zM310 153h4v2h-4zM310 155h6v2h-6zM310 157h8v2h-8zM310 159h6v2h-6zM310 161h4v2h-4zM310 163h2v2h-2zM334 151h10v2h-10zM334 153h2v2h-2zM334 155h2v2h-2zM334 157h8v2h-8zM334 159h2v2h-2zM334 161h2v2h-2zM334 163h10v2h-10zM346 151h2v2h-2zM354 151h2v2h-2zM346 153h2v2h-2zM354 153h2v2h-2zM346 155h4v2h-4zM354 155h2v2h-2zM346 157h2v2h-2zM350 157h2v2h-2zM354 157h2v2h-2zM346 159h2v2h-2zM352 159h4v2h-4zM346 161h2v2h-2zM354 161h2v2h-2zM346 163h2v2h-2zM354 163h2v2h-2zM358 151h10v2h-10zM362 153h2v2h-2zM362 155h2v2h-2zM362 157h2v2h-2zM362 159h2v2h-2zM362 161h2v2h-2zM362 163h2v2h-2zM370 151h10v2h-10zM370 153h2v2h-2zM370 155h2v2h-2zM370 157h8v2h-8zM370 159h2v2h-2zM370 161h2v2h-2zM370 163h10v2h-10zM382 151h8v2h-8zM382 153h2v2h-2zM390 153h2v2h-2zM382 155h2v2h-2zM390 155h2v2h-2zM382 157h8v2h-8zM382 159h2v2h-2zM386 159h2v2h-2zM382 161h2v2h-2zM388 161h2v2h-2zM382 163h2v2h-2zM390 163h2v2h-2z" fill="#ffec27"/>
</svg>
